<svg id="visual" viewBox="0 0 900 600" width="900" height="600" xmlns="http://www.w3.org/2000/svg" xmlns:xlink="http://www.w3.org/1999/xlink" version="1.1"><rect x="0" y="0" width="900" height="600" fill="#1B262C"></rect><g transform="translate(917.1167465405236 626.8582722639255)"><path d="M148 -231.1C214.8 -187.3 308 -185.2 332.2 -147.3C356.5 -109.3 311.9 -35.4 301.7 44.2C291.5 123.8 315.8 209.3 287.2 257.1C258.6 304.9 177 315.1 107.3 310.3C37.7 305.4 -20.2 285.6 -88.1 276.5C-156.1 267.3 -234.1 268.9 -290 234.5C-346 200.1 -379.9 129.8 -372.6 64.3C-365.3 -1.2 -316.8 -61.9 -271 -107.8C-225.2 -153.8 -182.1 -185 -137.4 -238.9C-92.6 -292.8 -46.3 -369.4 -2.9 -364.9C40.5 -360.4 81.1 -274.9 148 -231.1" fill="#f0f1ef"></path></g></svg>